<?xml version="1.0" encoding="UTF-8"?>
<svg xmlns="http://www.w3.org/2000/svg" xmlns:xlink="http://www.w3.org/1999/xlink" viewBox="0 0 480 480" width="480px" height="480px">
<g id="surface860710">
<path style=" stroke:none;fill-rule:evenodd;fill:rgb(100%,100%,100%);fill-opacity:1;" d="M 115.53125 110.988281 C 127.851562 121 132.46875 120.238281 155.609375 118.691406 L 373.730469 105.589844 C 378.359375 105.589844 374.511719 100.980469 372.96875 100.210938 L 336.75 74.019531 C 329.808594 68.628906 320.558594 62.460938 302.839844 64 L 91.640625 79.398438 C 83.941406 80.160156 82.398438 84.011719 85.46875 87.101562 Z M 115.53125 110.988281 "/>
<path style=" stroke:none;fill-rule:evenodd;fill:rgb(100%,100%,100%);fill-opacity:1;" d="M 128.621094 161.820312 L 128.621094 391.320312 C 128.621094 403.648438 134.78125 408.269531 148.660156 407.511719 L 388.371094 393.640625 C 402.25 392.878906 403.800781 384.390625 403.800781 374.371094 L 403.800781 146.410156 C 403.800781 136.410156 399.949219 131.011719 391.460938 131.78125 L 140.960938 146.410156 C 131.710938 147.179688 128.621094 151.808594 128.621094 161.820312 Z M 128.621094 161.820312 "/>
<path style=" stroke:none;fill-rule:evenodd;fill:rgb(3.921569%,40.000001%,76.078433%);fill-opacity:1;" d="M 115.53125 110.988281 C 127.851562 121 132.46875 120.238281 155.609375 118.691406 L 373.730469 105.589844 C 378.359375 105.589844 374.511719 100.980469 372.96875 100.210938 L 336.75 74.019531 C 329.808594 68.628906 320.558594 62.460938 302.839844 64 L 91.640625 79.398438 C 83.941406 80.160156 82.398438 84.011719 85.46875 87.101562 Z M 128.621094 161.820312 L 128.621094 391.320312 C 128.621094 403.648438 134.78125 408.269531 148.660156 407.511719 L 388.371094 393.640625 C 402.25 392.878906 403.800781 384.390625 403.800781 374.371094 L 403.800781 146.410156 C 403.800781 136.410156 399.949219 131.011719 391.460938 131.78125 L 140.960938 146.410156 C 131.710938 147.179688 128.621094 151.808594 128.621094 161.820312 Z M 365.261719 174.128906 C 366.800781 181.070312 365.261719 188 358.308594 188.78125 L 346.761719 191.078125 L 346.761719 360.511719 C 336.730469 365.898438 327.480469 368.980469 319.78125 368.980469 C 307.441406 368.980469 304.351562 365.128906 295.109375 353.578125 L 219.558594 234.980469 L 219.558594 349.730469 L 243.46875 355.121094 C 243.46875 355.121094 243.46875 368.980469 224.179688 368.980469 L 171.011719 372.058594 C 169.46875 368.980469 171.011719 361.28125 176.398438 359.738281 L 190.28125 355.890625 L 190.28125 204.179688 L 171.011719 202.640625 C 169.460938 195.699219 173.308594 185.699219 184.109375 184.921875 L 241.148438 181.070312 L 319.769531 301.21875 L 319.769531 194.929688 L 299.71875 192.628906 C 298.179688 184.148438 304.339844 177.988281 312.050781 177.230469 Z M 73.890625 58.621094 L 293.570312 42.441406 C 320.550781 40.128906 327.488281 41.679688 344.441406 53.988281 L 414.570312 103.28125 C 426.140625 111.761719 430 114.070312 430 123.300781 L 430 393.621094 C 430 410.558594 423.828125 420.578125 402.25 422.109375 L 147.128906 437.519531 C 130.929688 438.289062 123.21875 435.980469 114.738281 425.199219 L 63.101562 358.199219 C 53.851562 345.871094 50 336.640625 50 325.851562 L 50 85.558594 C 50 71.710938 56.171875 60.148438 73.890625 58.621094 Z M 73.890625 58.621094 "/>
</g>
</svg>
